<svg xmlns="http://www.w3.org/2000/svg" width="30" height="26" viewBox="0 0 30 26"><defs><style>.a{fill:#ff9c41;}</style></defs><path class="a" d="M16.379,3.238a1.777,1.777,0,0,0-1.782.025.536.536,0,0,0-.075.053L6.709,9.794H.577A.57.57,0,0,0,0,10.359V21.1a.557.557,0,0,0,.169.4.584.584,0,0,0,.408.166l6.118,0,7.81,7.031a.563.563,0,0,0,.093.068,1.777,1.777,0,0,0,1.782.025,1.759,1.759,0,0,0,.92-1.557V4.8A1.76,1.76,0,0,0,16.379,3.238Zm-.233,23.988a.646.646,0,0,1-.334.574.615.615,0,0,1-.577.015L7.5,20.847V18.272a.577.577,0,0,0-1.153,0V20.53l-5.19,0V10.925h5.19v2.261a.577.577,0,0,0,1.153,0V10.622l7.73-6.409a.613.613,0,0,1,.586.01.646.646,0,0,1,.334.573Z" transform="translate(0 -3.011)"/><path class="a" d="M38.237,7.043a.58.58,0,0,0-.732.354.564.564,0,0,0,.361.717,9.819,9.819,0,0,1,.013,18.711.562.562,0,0,0-.359.718.581.581,0,0,0,.732.352,10.943,10.943,0,0,0-.015-20.852Z" transform="translate(-15.865 -4.751)"/><path class="a" d="M38.358,19.86a7.687,7.687,0,0,0-5.622-7.326.578.578,0,0,0-.714.387.563.563,0,0,0,.394.7,6.459,6.459,0,0,1,0,12.479.564.564,0,0,0-.394.7.576.576,0,0,0,.554.409.6.6,0,0,0,.16-.022A7.686,7.686,0,0,0,38.358,19.86Z" transform="translate(-13.547 -7.142)"/></svg>